<svg xmlns="http://www.w3.org/2000/svg" viewBox="0 0 754.6 228.6" enable-background="new 0 0 754.6 228.6"><g fill="#fff"><path d="M23.1 133.3v-5.5c0-2.5-1.2-3.8-3.7-3.8h-1.3c-2.4 0-3.6 1.3-3.6 3.8v10.4c0 1.2.2 2 .7 2.4.5.4 1.2.9 2.3 1.6l7.9 4.3c1.7 1 3 1.8 3.7 2.3.7.6 1.3 1.2 1.7 2 .4.8.6 2.3.6 4.5v13.4c0 7-3.4 10.6-10.1 10.6h-5.2c-6.7 0-10-3.8-10-11.5v-3.1h8.4v3.4c0 2.4 1.3 3.7 3.8 3.7h1.5c2.2 0 3.3-1.2 3.3-3.7v-10.7c0-1.2-.2-2-.7-2.4-.5-.4-1.2-.9-2.3-1.6l-7.9-4.5c-1.7-.9-3-1.7-3.8-2.4-.8-.7-1.4-1.5-1.7-2.5-.3-1-.5-2.3-.5-4v-12.8c0-7.2 3.3-10.7 10-10.7h5.2c6.7 0 10 3.6 10 10.7v6.1h-8.3zM57.1 124v55.1h-8.4v-55.1h-8v-7.6h24.4v7.6h-8zM84.8 179.1c-6.8 0-10.1-3.5-10.1-10.7v-41.3c0-7.2 3.3-10.7 10-10.7h8c6.7 0 10 3.6 10 10.7v41.3c0 7.1-3.4 10.7-10.1 10.7h-7.8zm2-7.6h4.3c2.2 0 3.3-1.2 3.3-3.7v-40.2c0-2.4-1.3-3.7-3.8-3.7h-3.9c-2.4 0-3.7 1.2-3.7 3.7v40.2c.1 2.5 1.3 3.7 3.8 3.7zM142.7 116.4v50.8c0 7.9-3.4 11.9-10.1 11.9h-7.1c-6.7 0-10-4-10-12v-50.7h8.4v51c0 2.7 1.2 4.1 3.7 4.1h3.4c2.3 0 3.4-1.4 3.4-4.1v-51h8.3zM169.2 124v55.1h-8.4v-55.1h-8v-7.6h24.4v7.6h-8zM225.9 146.9c4.6 1.3 6.9 3.7 6.9 7.2v15.7c0 6.2-3.2 9.3-9.5 9.3h-16.8v-62.7h14.3c7.4 0 11.2 3.8 11.2 11.4v12c0 3.6-2 5.8-6 6.6v.5zm-11.1-4h3.9c3.2 0 4.8-1.5 4.8-4.5v-9.8c0-3-1.3-4.5-3.8-4.5h-5v18.8zm0 28.6h6.3c2.2 0 3.3-.9 3.3-2.7v-13.9c0-3-1.7-4.5-5-4.5h-4.6v21.1zM245 116.4h16.4c6.4 0 9.6 3.6 9.6 10.7v15.5c0 5.5-1.7 8.9-5 10.4l5.8 26.1h-7.8l-5.5-25.3h-5.1v25.3h-8.4v-62.7zm8.4 30.2h5.5c2.5 0 3.8-1.5 3.8-4.5v-13.5c0-3-1.3-4.5-3.8-4.5h-5.5v22.5zM283.3 179.1v-62.7h20.7v7.6h-12.4v19h11v7.6h-11v20.9h12.4v7.6h-20.7zM359.1 116.4l-9.3 62.7h-9.1l-5.2-36.3-5.1 36.3h-9.1l-9.3-62.7h8.3l5.9 47 5.9-47h6.5l5.9 47 5.9-47h8.7zM369.2 179.1v-62.7h8.4v62.7h-8.4zM408 146.7v-30.3h8.4v62.7h-8.4v-12.5l-9-28.5v41h-8.4v-62.7h8.4l9 30.3zM442.4 156.1v-7.6h12.7v30.6h-16.4c-6.5 0-9.7-3.5-9.7-10.6v-41.4c0-7.2 3.2-10.7 9.7-10.7h5.8c7.1 0 10.7 3.6 10.7 10.9v6.8h-8.4v-5.6c0-3-1.2-4.5-3.6-4.5h-2.1c-2.4 0-3.7 1.5-3.7 4.5v38.5c0 3 1.2 4.5 3.7 4.5h5.7v-15.4h-4.4zM511.5 164.4v4c0 7.1-3.3 10.7-10 10.7h-5.5c-6.7 0-10-3.5-10-10.7v-41.4c0-7.1 3.3-10.7 10-10.7h5.4c6.7 0 10 3.6 10 10.7v7.1h-8.4v-6.5c0-2.4-1.3-3.7-3.8-3.7h-1.7c-2.2 0-3.3 1.2-3.3 3.7v40.2c0 2.4 1.1 3.7 3.3 3.7h2.1c2.2 0 3.3-1.2 3.3-3.7v-3.4h8.6zM532.9 179.1c-6.8 0-10.1-3.5-10.1-10.7v-41.3c0-7.2 3.3-10.7 10-10.7h8c6.7 0 10 3.6 10 10.7v41.3c0 7.1-3.4 10.7-10.1 10.7h-7.8zm2.1-7.6h4.3c2.2 0 3.3-1.2 3.3-3.7v-40.2c0-2.4-1.3-3.7-3.8-3.7h-3.9c-2.4 0-3.7 1.2-3.7 3.7v40.2c0 2.5 1.2 3.7 3.8 3.7zM580.6 153.2l7.8-36.8h9.3v62.7h-8.4l.9-41-6.3 29.7h-6.5l-6.3-29.7.9 41h-8.4v-62.7h9.3l7.7 36.8zM610.7 116.4h15.3c6.8 0 10.1 3.6 10.1 10.7v18.6c0 7.1-3.3 10.7-10 10.7h-7v22.7h-8.4v-62.7zm8.4 32.4h5.3c2.2 0 3.3-1.2 3.3-3.7v-17.5c0-2.4-1.3-3.7-3.8-3.7h-4.9v24.9zM656 179.1h-8.4v-51.9c0-7.2 3.3-10.7 10-10.7h6.3c6.7 0 10 3.6 10 10.7v51.9h-8.4v-23h-9.5v23zm9.6-30.6v-20.9c0-2.4-1.2-3.7-3.7-3.7h-2.3c-2.4 0-3.7 1.2-3.7 3.7v20.9h9.7zM704 146.7v-30.3h8.4v62.7h-8.4v-12.5l-9-28.5v41h-8.4v-62.7h8.4l9 30.3zM739.3 179.1h-8.4v-23l-10.3-39.6h8.3l6.3 27.2h.3l5.7-27.2h8.3l-10.2 39.5v23.1z"/></g><rect x="56" y="201.4" fill="#fff" width="638.7" height="9"/><rect x="56" y="75.9" fill="#fff" width="638.7" height="9"/><polygon fill="#fff" points="374,11.6 381.3,26.4 397.7,28.8 385.9,40.4 388.7,56.7 374,49 359.3,56.7 362.1,40.4 350.3,28.8 366.7,26.4"/></svg>