<?xml version="1.0" encoding="utf-8"?>
<!-- Generator: Adobe Illustrator 19.1.0, SVG Export Plug-In . SVG Version: 6.00 Build 0)  -->
<svg version="1.1" id="Layer_1" xmlns="http://www.w3.org/2000/svg" xmlns:xlink="http://www.w3.org/1999/xlink" x="0px" y="0px"
	 viewBox="0 0 754.6 228.6" enable-background="new 0 0 754.6 228.6" xml:space="preserve">
<g>
	<path fill="#FFFFFF" d="M23.1,133.3v-5.5c0-2.5-1.2-3.8-3.7-3.8h-1.3c-2.4,0-3.6,1.3-3.6,3.8v10.4c0,1.2,0.2,2,0.7,2.4
		c0.5,0.4,1.2,0.9,2.3,1.6l7.9,4.3c1.7,1,3,1.8,3.7,2.3c0.7,0.6,1.3,1.2,1.7,2c0.4,0.8,0.6,2.3,0.6,4.5v13.4c0,7-3.4,10.6-10.1,10.6
		h-5.2c-6.7,0-10-3.8-10-11.5v-3.1h8.4v3.4c0,2.4,1.3,3.7,3.8,3.7h1.5c2.2,0,3.3-1.2,3.3-3.7v-10.7c0-1.2-0.2-2-0.7-2.4
		c-0.5-0.4-1.2-0.9-2.3-1.6l-7.9-4.5c-1.7-0.9-3-1.7-3.8-2.4C7.6,145.8,7,145,6.7,144c-0.3-1-0.5-2.3-0.5-4v-12.8
		c0-7.2,3.3-10.7,10-10.7h5.2c6.7,0,10,3.6,10,10.7v6.1H23.1z"/>
	<path fill="#FFFFFF" d="M57.1,124v55.1h-8.4V124h-8v-7.6h24.4v7.6H57.1z"/>
	<path fill="#FFFFFF" d="M84.8,179.1c-6.8,0-10.1-3.5-10.1-10.7v-41.3c0-7.2,3.3-10.7,10-10.7h8c6.7,0,10,3.6,10,10.7v41.3
		c0,7.1-3.4,10.7-10.1,10.7H84.8z M86.8,171.5h4.3c2.2,0,3.3-1.2,3.3-3.7v-40.2c0-2.4-1.3-3.7-3.8-3.7h-3.9c-2.4,0-3.7,1.2-3.7,3.7
		v40.2C83.1,170.3,84.3,171.5,86.8,171.5z"/>
	<path fill="#FFFFFF" d="M142.7,116.4v50.8c0,7.9-3.4,11.9-10.1,11.9h-7.1c-6.7,0-10-4-10-12v-50.7h8.4v51c0,2.7,1.2,4.1,3.7,4.1
		h3.4c2.3,0,3.4-1.4,3.4-4.1v-51H142.7z"/>
	<path fill="#FFFFFF" d="M169.2,124v55.1h-8.4V124h-8v-7.6h24.4v7.6H169.2z"/>
	<path fill="#FFFFFF" d="M225.9,146.9c4.6,1.3,6.9,3.7,6.9,7.2v15.7c0,6.2-3.2,9.3-9.5,9.3h-16.8v-62.7h14.3
		c7.4,0,11.2,3.8,11.2,11.4v12c0,3.6-2,5.8-6,6.6V146.9z M214.8,142.9h3.9c3.2,0,4.8-1.5,4.8-4.5v-9.8c0-3-1.3-4.5-3.8-4.5h-5V142.9
		z M214.8,171.5h6.3c2.2,0,3.3-0.9,3.3-2.7v-13.9c0-3-1.7-4.5-5-4.5h-4.6V171.5z"/>
	<path fill="#FFFFFF" d="M245,116.4h16.4c6.4,0,9.6,3.6,9.6,10.7v15.5c0,5.5-1.7,8.9-5,10.4l5.8,26.1H264l-5.5-25.3h-5.1v25.3H245
		V116.4z M253.4,146.6h5.5c2.5,0,3.8-1.5,3.8-4.5v-13.5c0-3-1.3-4.5-3.8-4.5h-5.5V146.6z"/>
	<path fill="#FFFFFF" d="M283.3,179.1v-62.7H304v7.6h-12.4v19h11v7.6h-11v20.9H304v7.6H283.3z"/>
	<path fill="#FFFFFF" d="M359.1,116.4l-9.3,62.7h-9.1l-5.2-36.3l-5.1,36.3h-9.1l-9.3-62.7h8.3l5.9,47l5.9-47h6.5l5.9,47l5.9-47
		H359.1z"/>
	<path fill="#FFFFFF" d="M369.2,179.1v-62.7h8.4v62.7H369.2z"/>
	<path fill="#FFFFFF" d="M408,146.7v-30.3h8.4v62.7H408v-12.5l-9-28.5v41h-8.4v-62.7h8.4L408,146.7z"/>
	<path fill="#FFFFFF" d="M442.4,156.1v-7.6h12.7v30.6h-16.4c-6.5,0-9.7-3.5-9.7-10.6v-41.4c0-7.2,3.2-10.7,9.7-10.7h5.8
		c7.1,0,10.7,3.6,10.7,10.9v6.8h-8.4v-5.6c0-3-1.2-4.5-3.6-4.5h-2.1c-2.4,0-3.7,1.5-3.7,4.5V167c0,3,1.2,4.5,3.7,4.5h5.7v-15.4
		H442.4z"/>
	<path fill="#FFFFFF" d="M511.5,164.4v4c0,7.1-3.3,10.7-10,10.7H496c-6.7,0-10-3.5-10-10.7v-41.4c0-7.1,3.3-10.7,10-10.7h5.4
		c6.7,0,10,3.6,10,10.7v7.1h-8.4v-6.5c0-2.4-1.3-3.7-3.8-3.7h-1.7c-2.2,0-3.3,1.2-3.3,3.7v40.2c0,2.4,1.1,3.7,3.3,3.7h2.1
		c2.2,0,3.3-1.2,3.3-3.7v-3.4H511.5z"/>
	<path fill="#FFFFFF" d="M532.9,179.1c-6.8,0-10.1-3.5-10.1-10.7v-41.3c0-7.2,3.3-10.7,10-10.7h8c6.7,0,10,3.6,10,10.7v41.3
		c0,7.1-3.4,10.7-10.1,10.7H532.9z M535,171.5h4.3c2.2,0,3.3-1.2,3.3-3.7v-40.2c0-2.4-1.3-3.7-3.8-3.7h-3.9c-2.4,0-3.7,1.2-3.7,3.7
		v40.2C531.2,170.3,532.4,171.5,535,171.5z"/>
	<path fill="#FFFFFF" d="M580.6,153.2l7.8-36.8h9.3v62.7h-8.4l0.9-41l-6.3,29.7h-6.5l-6.3-29.7l0.9,41h-8.4v-62.7h9.3L580.6,153.2z"
		/>
	<path fill="#FFFFFF" d="M610.7,116.4H626c6.8,0,10.1,3.6,10.1,10.7v18.6c0,7.1-3.3,10.7-10,10.7h-7v22.7h-8.4V116.4z M619.1,148.8
		h5.3c2.2,0,3.3-1.2,3.3-3.7v-17.5c0-2.4-1.3-3.7-3.8-3.7h-4.9V148.8z"/>
	<path fill="#FFFFFF" d="M656,179.1h-8.4v-51.9c0-7.2,3.3-10.7,10-10.7h6.3c6.7,0,10,3.6,10,10.7v51.9h-8.4v-23H656V179.1z
		 M665.6,148.5v-20.9c0-2.4-1.2-3.7-3.7-3.7h-2.3c-2.4,0-3.7,1.2-3.7,3.7v20.9H665.6z"/>
	<path fill="#FFFFFF" d="M704,146.7v-30.3h8.4v62.7H704v-12.5l-9-28.5v41h-8.4v-62.7h8.4L704,146.7z"/>
	<path fill="#FFFFFF" d="M739.3,179.1h-8.4v-23l-10.3-39.6h8.3l6.3,27.2h0.3l5.7-27.2h8.3L739.3,156V179.1z"/>
</g>
<rect x="56" y="201.4" fill="#FFFFFF" width="638.7" height="9"/>
<rect x="56" y="75.9" fill="#FFFFFF" width="638.7" height="9"/>
<polygon fill="#FFFFFF" points="374,11.6 381.3,26.4 397.7,28.8 385.9,40.4 388.7,56.7 374,49 359.3,56.7 362.1,40.4 350.3,28.8 
	366.7,26.4 "/>
</svg>
